<?xml version="1.0" encoding="UTF-8"?>
<svg width="428px" height="884px" viewBox="0 0 428 884" version="1.1" xmlns="http://www.w3.org/2000/svg" xmlns:xlink="http://www.w3.org/1999/xlink">
    <!-- Generator: Sketch 53.1 (72631) - https://sketchapp.com -->
    <title>artboard</title>
    <desc>Created with Sketch.</desc>
    <g id="artboard" stroke="none" stroke-width="1" fill="none" fill-rule="evenodd">
        <path d="M40,883.1 C25.8,880.1 11.4,868.3 4.4,854.1 L0.5,846.1 L0.2,443.8 L8.52651283e-14,41.5 L2.1,35.3 C6.5,22.1 17.5,10 30.7,3.7 L38.5,5.68434189e-14 L213.6,5.68434189e-14 L388.7,5.68434189e-14 L397.2,4.2 C413.2,12.1 424.7,27.1 427,43 C427.7,47.7 428,178.2 427.8,446.5 L427.5,843 L425.3,848.7 C418.6,866.3 402.5,880.3 385.6,883.4 C376.7,885 47.5,884.8 40,883.1 Z M410.4,779.9 C411.9,779.3 412,748.1 412,435.4 L412,91.5 L217.5,91.5 C45.3,91.5 23,91.7 23,93 C23,93.8 22.6,94.5 22,94.5 C21.3,94.5 21,209.5 21,437.5 L21,780.5 L214.9,780.5 C321.6,780.5 409.5,780.2 410.4,779.9 Z" id="Shape" fill="#000000" fill-rule="nonzero"></path>
    </g>
</svg>