<?xml version="1.0" standalone="no"?>
<!DOCTYPE svg PUBLIC "-//W3C//DTD SVG 20010904//EN"
 "http://www.w3.org/TR/2001/REC-SVG-20010904/DTD/svg10.dtd">
<svg version="1.0" xmlns="http://www.w3.org/2000/svg"
 width="512.000000pt" height="512.000000pt" viewBox="0 0 512.000000 512.000000"
 preserveAspectRatio="xMidYMid meet">
<metadata>
Created by potrace 1.11, written by Peter Selinger 2001-2013
</metadata>
<g transform="translate(0.000000,512.000000) scale(0.100000,-0.100000)"
fill="#000000" stroke="none">
<path d="M2092 4040 c-146 -19 -244 -53 -351 -125 -116 -76 -193 -190 -232
-342 -16 -64 -19 -111 -19 -285 l0 -208 -195 0 -195 0 0 -175 0 -175 195 0
195 0 0 -865 0 -865 220 0 220 0 0 865 0 865 335 0 335 0 0 175 0 175 -340 0
-340 0 0 155 c0 221 20 298 96 364 71 63 113 75 264 75 121 1 141 -2 188 -23
29 -13 54 -22 56 -20 11 13 77 301 72 314 -8 23 -99 62 -181 79 -95 20 -235
26 -323 16z"/>
<path d="M2982 2703 l3 -1318 22 -77 c29 -102 55 -151 114 -214 85 -89 219
-134 407 -134 111 0 225 19 295 50 l44 19 22 163 c12 90 24 170 27 179 4 13
-7 12 -68 -9 -86 -29 -223 -40 -285 -23 -55 15 -99 53 -115 99 -10 29 -14 322
-18 1307 l-5 1270 -223 3 -222 2 2 -1317z"/>
</g>
</svg>
